<svg width="40" height="38" viewBox="0 0 40 38" fill="none" xmlns="http://www.w3.org/2000/svg">
<rect width="40" height="38" fill="#1E1E1E"/>
<rect width="1528" height="1528" transform="translate(-879 -66)" fill="#E7E7E7"/>
<rect x="-5.85" y="-6.85" width="51.2935" height="51.2935" stroke="black" stroke-width="0.3"/>
<circle cx="19.7967" cy="18.7967" r="25.6467" stroke="black" stroke-width="0.3"/>
<path d="M4.46824 0.477295C2.19695 0.477295 0.355713 2.31854 0.355713 4.58982V28.7044C0.355713 28.7892 0.35828 28.8734 0.36334 28.9569C0.358324 28.9923 0.355713 29.0287 0.355713 29.0661V36.3532C0.355713 36.9868 1.09444 37.3332 1.58159 36.9281L6.49323 32.8429C6.50342 32.8344 6.51332 32.8257 6.52292 32.8169H35.1252C37.3965 32.8169 39.2377 30.9756 39.2377 28.7043V4.58982C39.2377 2.31853 37.3965 0.477295 35.1252 0.477295H4.46824Z" fill="#1E86E5"/>
<path d="M12.0472 25.4874C10.8189 25.4874 9.70232 25.2801 8.69737 24.8653C7.70837 24.4346 6.88686 23.8205 6.23285 23.0229L8.81701 19.9602C9.26365 20.5345 9.72625 20.9731 10.2048 21.2762C10.6833 21.5633 11.1858 21.7069 11.7122 21.7069C13.116 21.7069 13.8178 20.8934 13.8178 19.2663V12.0642H8.0274V8.40326H18.5076V18.9792C18.5076 21.1645 17.9573 22.7996 16.8566 23.8843C15.756 24.953 14.1528 25.4874 12.0472 25.4874Z" fill="white"/>
<path d="M28.2853 25.3678C26.754 25.3678 25.414 25.0807 24.2655 24.5064C23.133 23.9162 22.2476 23.1186 21.6096 22.1137C20.9875 21.0928 20.6764 19.9363 20.6764 18.6442C20.6764 17.3521 20.9795 16.2036 21.5856 15.1986C22.2078 14.1777 23.0612 13.3881 24.1459 12.8298C25.2306 12.2556 26.4509 11.9684 27.8068 11.9684C29.0829 11.9684 30.2474 12.2316 31.3002 12.758C32.353 13.2685 33.1904 14.0262 33.8125 15.0312C34.4347 16.0361 34.7457 17.2564 34.7457 18.692C34.7457 18.8516 34.7377 19.035 34.7218 19.2424C34.7058 19.4497 34.6899 19.6412 34.6739 19.8166H24.4091V17.4239H32.2573L30.5345 18.0939C30.5504 17.5036 30.4388 16.9932 30.1995 16.5625C29.9762 16.1318 29.6572 15.7968 29.2424 15.5576C28.8436 15.3183 28.3731 15.1986 27.8307 15.1986C27.2883 15.1986 26.8098 15.3183 26.3951 15.5576C25.9963 15.7968 25.6852 16.1398 25.4619 16.5864C25.2386 17.0171 25.1269 17.5276 25.1269 18.1178V18.8117C25.1269 19.4497 25.2545 20.0001 25.5097 20.4627C25.7809 20.9253 26.1638 21.2842 26.6583 21.5394C27.1528 21.7787 27.743 21.8983 28.4289 21.8983C29.0669 21.8983 29.6093 21.8106 30.0559 21.6351C30.5185 21.4437 30.9732 21.1566 31.4198 20.7737L33.8125 23.2622C33.1904 23.9481 32.4248 24.4745 31.5155 24.8414C30.6063 25.1923 29.5295 25.3678 28.2853 25.3678Z" fill="white"/>
</svg>
